<mxfile host="65bd71144e">
    <diagram id="j670iQ3O4oD8bHWXM7zq" name="Page-1">
        <mxGraphModel dx="512" dy="774" grid="1" gridSize="10" guides="1" tooltips="1" connect="1" arrows="1" fold="1" page="1" pageScale="1" pageWidth="850" pageHeight="1100" math="0" shadow="0">
            <root>
                <mxCell id="0"/>
                <mxCell id="1" parent="0"/>
                <mxCell id="60" value="" style="rounded=0;whiteSpace=wrap;html=1;" vertex="1" parent="1">
                    <mxGeometry x="90" y="120" width="330" height="180" as="geometry"/>
                </mxCell>
                <mxCell id="47" value="" style="rounded=0;whiteSpace=wrap;html=1;" vertex="1" parent="1">
                    <mxGeometry x="290" y="140" width="110" height="110" as="geometry"/>
                </mxCell>
                <mxCell id="53" style="edgeStyle=none;html=1;exitX=1;exitY=0.25;exitDx=0;exitDy=0;entryX=0;entryY=0.25;entryDx=0;entryDy=0;fillColor=#dae8fc;gradientColor=#7ea6e0;strokeColor=#6c8ebf;" edge="1" parent="1" source="46" target="48">
                    <mxGeometry relative="1" as="geometry"/>
                </mxCell>
                <mxCell id="54" value="localhost:9092&lt;br&gt;get metadata" style="edgeLabel;html=1;align=center;verticalAlign=middle;resizable=0;points=[];" vertex="1" connectable="0" parent="53">
                    <mxGeometry x="-0.5844" y="1" relative="1" as="geometry">
                        <mxPoint x="30" y="-16" as="offset"/>
                    </mxGeometry>
                </mxCell>
                <mxCell id="59" value="cant resolve&lt;br&gt;&quot;broker:9092&quot;" style="edgeStyle=none;html=1;exitX=1;exitY=0.75;exitDx=0;exitDy=0;fillColor=#f8cecc;gradientColor=#ea6b66;strokeColor=#b85450;" edge="1" parent="1" source="46">
                    <mxGeometry x="1" y="20" relative="1" as="geometry">
                        <mxPoint x="210" y="260" as="targetPoint"/>
                        <Array as="points">
                            <mxPoint x="210" y="220"/>
                        </Array>
                        <mxPoint x="-20" y="20" as="offset"/>
                    </mxGeometry>
                </mxCell>
                <mxCell id="46" value="Client" style="rounded=0;whiteSpace=wrap;html=1;" vertex="1" parent="1">
                    <mxGeometry x="110" y="170" width="70" height="65" as="geometry"/>
                </mxCell>
                <mxCell id="55" style="edgeStyle=none;html=1;exitX=0;exitY=0.5;exitDx=0;exitDy=0;entryX=1;entryY=0.5;entryDx=0;entryDy=0;fillColor=#d5e8d4;gradientColor=#97d077;strokeColor=#82b366;" edge="1" parent="1" source="48" target="46">
                    <mxGeometry relative="1" as="geometry"/>
                </mxCell>
                <mxCell id="56" value="&quot;broker:9092&quot;" style="edgeLabel;html=1;align=center;verticalAlign=middle;resizable=0;points=[];" vertex="1" connectable="0" parent="55">
                    <mxGeometry x="0.2982" y="-1" relative="1" as="geometry">
                        <mxPoint x="10" y="1" as="offset"/>
                    </mxGeometry>
                </mxCell>
                <mxCell id="48" value="Kafka" style="rounded=0;whiteSpace=wrap;html=1;" vertex="1" parent="1">
                    <mxGeometry x="311.25" y="170" width="67.5" height="65" as="geometry"/>
                </mxCell>
                <mxCell id="50" value="advertised.liseteners&lt;br&gt;broker:9092" style="text;html=1;strokeColor=none;fillColor=none;align=center;verticalAlign=middle;whiteSpace=wrap;rounded=0;" vertex="1" parent="1">
                    <mxGeometry x="290" y="250" width="125" height="50" as="geometry"/>
                </mxCell>
                <mxCell id="52" value="container" style="rounded=0;whiteSpace=wrap;html=1;" vertex="1" parent="1">
                    <mxGeometry x="290" y="140" width="60" height="20" as="geometry"/>
                </mxCell>
                <mxCell id="61" value="host" style="rounded=0;whiteSpace=wrap;html=1;" vertex="1" parent="1">
                    <mxGeometry x="90" y="120" width="50" height="20" as="geometry"/>
                </mxCell>
            </root>
        </mxGraphModel>
    </diagram>
</mxfile>